<svg width="24" height="24" viewBox="0 0 24 24" fill="currentColor" xmlns="http://www.w3.org/2000/svg">
  <path
    d="M20.4286 14H19.5714C18.8894 14 18.2354 14.281 17.7532 14.781C17.2709 15.2811 17 15.9594 17 16.6667V21.1111C17 21.3469 17.0903 21.573 17.2511 21.7397C17.4118 21.9063 17.6298 22 17.8571 22C18.0845 22 18.3025 21.9063 18.4632 21.7397C18.624 21.573 18.7143 21.3469 18.7143 21.1111V19.3333H21.2857V21.1111C21.2857 21.3469 21.376 21.573 21.5368 21.7397C21.6975 21.9063 21.9155 22 22.1429 22C22.3702 22 22.5882 21.9063 22.7489 21.7397C22.9097 21.573 23 21.3469 23 21.1111V16.6667C23 15.9594 22.7291 15.2811 22.2468 14.781C21.7646 14.281 21.1106 14 20.4286 14ZM21.2857 17.5556H18.7143V16.6667C18.7143 16.4309 18.8046 16.2048 18.9653 16.0381C19.1261 15.8714 19.3441 15.7778 19.5714 15.7778H20.4286C20.6559 15.7778 20.8739 15.8714 21.0347 16.0381C21.1954 16.2048 21.2857 16.4309 21.2857 16.6667V17.5556Z"
    fill="currentColor" />
  <g clip-path="url(#clip0_3_6)">
    <path
      d="M16.5362 11.3845C16.4026 11.2324 16.3289 11.0369 16.3289 10.8345C16.3289 10.632 16.4026 10.4365 16.5362 10.2845L17.6029 9.08447C17.7204 8.95336 17.7934 8.78839 17.8114 8.61322C17.8293 8.43806 17.7914 8.2617 17.7029 8.10947L16.0362 5.22613C15.9486 5.07407 15.8153 4.95353 15.6552 4.8817C15.4951 4.80988 15.3164 4.79043 15.1445 4.82613L13.5779 5.1428C13.3785 5.18399 13.171 5.15079 12.9944 5.04947C12.8179 4.94814 12.6845 4.7857 12.6195 4.5928L12.1112 3.0678C12.0553 2.90228 11.9488 2.75852 11.8067 2.65683C11.6647 2.55515 11.4942 2.50068 11.3195 2.50113H7.98621C7.80449 2.49165 7.62466 2.54191 7.47418 2.64423C7.32371 2.74655 7.21086 2.89532 7.15288 3.0678L6.68621 4.5928C6.62121 4.7857 6.48785 4.94814 6.3113 5.04947C6.13475 5.15079 5.92722 5.18399 5.72788 5.1428L4.11954 4.82613C3.95667 4.80312 3.79063 4.82882 3.64233 4.9C3.49404 4.97118 3.37013 5.08466 3.28621 5.22613L1.61954 8.10947C1.52884 8.26001 1.48806 8.43537 1.50303 8.61049C1.518 8.7856 1.58794 8.9515 1.70288 9.08447L2.76121 10.2845C2.89481 10.4365 2.96849 10.632 2.96849 10.8345C2.96849 11.0369 2.89481 11.2324 2.76121 11.3845L1.70288 12.5845C1.58794 12.7174 1.518 12.8833 1.50303 13.0584C1.48806 13.2336 1.52884 13.4089 1.61954 13.5595L3.28621 16.4428C3.37379 16.5949 3.50714 16.7154 3.66725 16.7872C3.82736 16.8591 4.00606 16.8785 4.17788 16.8428L5.74454 16.5261C5.94389 16.4849 6.15142 16.5181 6.32797 16.6195C6.50452 16.7208 6.63788 16.8832 6.70288 17.0761L7.21121 18.6011C7.26919 18.7736 7.38204 18.9224 7.53251 19.0247C7.68299 19.127 7.86282 19.1773 8.04454 19.1678H11.3779C11.5526 19.1682 11.723 19.1138 11.8651 19.0121C12.0071 18.9104 12.1136 18.7666 12.1695 18.6011L12.6779 17.0761C12.7429 16.8832 12.8762 16.7208 13.0528 16.6195C13.2293 16.5181 13.4369 16.4849 13.6362 16.5261L15.2029 16.8428C15.3747 16.8785 15.5534 16.8591 15.7135 16.7872C15.8736 16.7154 16.007 16.5949 16.0945 16.4428L17.7612 13.5595C17.8497 13.4072 17.8877 13.2309 17.8697 13.0557C17.8517 12.8805 17.7787 12.7156 17.6612 12.5845L16.5362 11.3845ZM15.2945 12.5011L15.9612 13.2511L14.8945 15.1011L13.9112 14.9011C13.311 14.7784 12.6867 14.8804 12.1567 15.1876C11.6267 15.4949 11.228 15.986 11.0362 16.5678L10.7195 17.5011H8.58621L8.28621 16.5511C8.09442 15.9693 7.69569 15.4782 7.16571 15.171C6.63573 14.8637 6.01139 14.7618 5.41121 14.8845L4.42788 15.0845L3.34454 13.2428L4.01121 12.4928C4.42117 12.0344 4.64782 11.4411 4.64782 10.8261C4.64782 10.2112 4.42117 9.61782 4.01121 9.15947L3.34454 8.40947L4.41121 6.57613L5.39454 6.77613C5.99473 6.89882 6.61907 6.79687 7.14905 6.48963C7.67903 6.1824 8.07775 5.69127 8.26954 5.10947L8.58621 4.1678H10.7195L11.0362 5.1178C11.228 5.6996 11.6267 6.19073 12.1567 6.49796C12.6867 6.8052 13.311 6.90715 13.9112 6.78447L14.8945 6.58447L15.9612 8.43447L15.2945 9.18447C14.8892 9.64177 14.6654 10.2317 14.6654 10.8428C14.6654 11.4539 14.8892 12.0438 15.2945 12.5011ZM9.65288 7.50113C8.99361 7.50113 8.34914 7.69663 7.80097 8.0629C7.25281 8.42917 6.82557 8.94977 6.57328 9.55885C6.32099 10.1679 6.25497 10.8382 6.38359 11.4848C6.51221 12.1314 6.82968 12.7253 7.29585 13.1915C7.76203 13.6577 8.35597 13.9751 9.00258 14.1038C9.64918 14.2324 10.3194 14.1664 10.9285 13.9141C11.5376 13.6618 12.0582 13.2345 12.4244 12.6864C12.7907 12.1382 12.9862 11.4937 12.9862 10.8345C12.9862 9.95041 12.635 9.10256 12.0099 8.47744C11.3848 7.85232 10.5369 7.50113 9.65288 7.50113ZM9.65288 12.5011C9.32324 12.5011 9.00101 12.4034 8.72693 12.2202C8.45284 12.0371 8.23922 11.7768 8.11308 11.4723C7.98693 11.1677 7.95393 10.8326 8.01823 10.5093C8.08254 10.186 8.24128 9.88904 8.47436 9.65595C8.70745 9.42287 9.00442 9.26413 9.32773 9.19982C9.65103 9.13552 9.98614 9.16852 10.2907 9.29467C10.5952 9.42081 10.8555 9.63443 11.0387 9.90852C11.2218 10.1826 11.3195 10.5048 11.3195 10.8345C11.3195 11.2765 11.1439 11.7004 10.8314 12.013C10.5188 12.3255 10.0949 12.5011 9.65288 12.5011Z"
      fill="currentColor" />
  </g>
  <defs>
    <clipPath id="clip0_3_6">
      <rect width="17" height="18" fill="white" transform="translate(1 2)" />
    </clipPath>
  </defs>
</svg>